<svg xmlns="http://www.w3.org/2000/svg" xmlns:xlink="http://www.w3.org/1999/xlink" width="500" zoomAndPan="magnify" viewBox="0 0 375 374.999991" height="500" preserveAspectRatio="xMidYMid meet" version="1.0"><defs><g/><clipPath id="9a8629012f"><path d="M 9.566406 9.566406 L 365.066406 9.566406 L 365.066406 365.066406 L 9.566406 365.066406 Z M 9.566406 9.566406 " clip-rule="nonzero"/></clipPath></defs><g fill="#000000" fill-opacity="1"><g transform="translate(137.841792, 202.499987)"><g><path d="M 13.640625 0 L 7.328125 0 L 0.78125 -28.5625 L 6.40625 -28.5625 L 10.71875 -8.484375 L 11.21875 -8.484375 L 16.328125 -28.5625 L 21.15625 -28.5625 L 26.375 -8.484375 L 26.859375 -8.484375 L 31.1875 -28.5625 L 36.625 -28.5625 L 30.09375 0 L 23.765625 0 L 18.765625 -18.421875 L 18.359375 -18.421875 Z M 13.640625 0 "/></g></g></g><g fill="#000000" fill-opacity="1"><g transform="translate(175.220951, 202.499987)"><g><path d="M 13.640625 0 L 7.328125 0 L 0.78125 -28.5625 L 6.40625 -28.5625 L 10.71875 -8.484375 L 11.21875 -8.484375 L 16.328125 -28.5625 L 21.15625 -28.5625 L 26.375 -8.484375 L 26.859375 -8.484375 L 31.1875 -28.5625 L 36.625 -28.5625 L 30.09375 0 L 23.765625 0 L 18.765625 -18.421875 L 18.359375 -18.421875 Z M 13.640625 0 "/></g></g></g><g fill="#000000" fill-opacity="1"><g transform="translate(212.60011, 202.499987)"><g><path d="M 9.359375 -12.546875 L 9.359375 -4.734375 L 22.984375 -4.734375 L 22.984375 0 L 3.71875 0 L 3.71875 -28.5625 L 22.671875 -28.5625 L 22.671875 -23.828125 L 9.359375 -23.828125 L 9.359375 -17.15625 L 21 -17.15625 L 21 -12.546875 Z M 9.359375 -12.546875 "/></g></g></g><g clip-path="url(#9a8629012f)"><path fill="#ff3131" d="M 9.566406 187.492188 C 9.566406 89.226562 89.222656 9.566406 187.488281 9.566406 C 285.753906 9.566406 365.414062 89.226562 365.414062 187.492188 C 365.414062 285.757812 285.753906 365.414062 187.488281 365.414062 C 89.222656 365.414062 9.566406 285.757812 9.566406 187.492188 " fill-opacity="1" fill-rule="nonzero"/><path fill="#f9cf5c" d="M 140.339844 359.101562 L 144.613281 356.371094 L 139.410156 358.84375 C 136.242188 357.953125 133.105469 356.980469 130.011719 355.929688 L 141.539062 350.046875 L 127.601562 355.082031 C 124.535156 353.988281 121.507812 352.8125 118.523438 351.554688 L 139.089844 343.457031 L 114.40625 349.761719 C 111.523438 348.460938 108.679688 347.085938 105.882812 345.636719 L 137.285156 336.660156 L 99.957031 342.433594 C 97.339844 340.949219 94.761719 339.402344 92.226562 337.792969 L 136.152344 329.71875 L 84.578125 332.652344 C 82.296875 331.03125 80.058594 329.359375 77.859375 327.640625 L 135.6875 322.703125 L 68.789062 320.035156 C 66.898438 318.34375 65.046875 316.609375 63.230469 314.839844 L 135.90625 315.671875 L 53.296875 304.328125 C 51.820312 302.632812 50.378906 300.910156 48.964844 299.164062 L 136.796875 308.699219 L 38.941406 285.457031 C 37.867188 283.835938 36.824219 282.195312 35.804688 280.539062 L 138.363281 301.84375 L 26.609375 263.585938 C 25.90625 262.097656 25.222656 260.601562 24.558594 259.089844 L 140.578125 295.167969 L 17.164062 239.089844 C 16.765625 237.785156 16.386719 236.46875 16.019531 235.152344 L 143.433594 288.742188 L 11.316406 212.542969 C 11.160156 211.441406 11.015625 210.335938 10.878906 209.234375 L 146.890625 282.617188 L 9.585938 184.628906 C 9.601562 183.738281 9.621094 182.851562 9.648438 181.964844 L 150.921875 276.859375 L 12.316406 156.144531 C 12.441406 155.460938 12.5625 154.78125 12.695312 154.097656 L 155.496094 271.515625 L 19.75 128.011719 L 20.285156 126.527344 L 160.558594 266.632812 L 31.875 101.160156 L 32.445312 100.144531 L 166.074219 262.269531 L 48.460938 76.449219 L 48.980469 75.800781 L 171.976562 258.453125 L 69.078125 54.691406 L 69.503906 54.308594 L 178.226562 255.230469 L 93.179688 36.589844 L 93.503906 36.386719 L 184.757812 252.617188 L 120.082031 22.78125 L 120.320312 22.683594 L 191.511719 250.65625 L 148.976562 13.746094 L 149.179688 13.703125 L 198.417969 249.351562 L 178.976562 9.769531 L 179.191406 9.757812 L 205.425781 248.71875 L 209.148438 10.875 L 209.4375 10.90625 L 212.457031 248.765625 L 238.597656 17.019531 L 239.007812 17.140625 L 219.449219 249.492188 L 266.429688 27.996094 L 267 28.277344 L 226.339844 250.886719 L 291.828125 43.355469 L 292.570312 43.898438 L 233.066406 252.945312 L 314.109375 62.492188 L 315 63.402344 L 239.5625 255.640625 L 332.726562 84.691406 C 333.054688 85.15625 333.386719 85.621094 333.710938 86.089844 L 245.765625 258.949219 L 347.289062 109.164062 C 347.617188 109.832031 347.941406 110.5 348.257812 111.171875 L 251.621094 262.84375 L 357.566406 135.082031 C 357.847656 135.988281 358.117188 136.898438 358.382812 137.808594 L 257.074219 267.28125 L 363.539062 161.578125 C 363.710938 162.75 363.871094 163.925781 364.015625 165.105469 L 262.074219 272.230469 L 365.414062 187.777344 C 365.410156 189.230469 365.390625 190.679688 365.351562 192.125 L 266.574219 277.632812 L 363.617188 212.871094 C 363.371094 214.59375 363.101562 216.304688 362.804688 218.007812 L 270.527344 283.445312 L 358.652344 236.238281 C 358.09375 238.203125 357.503906 240.152344 356.878906 242.089844 L 273.90625 289.617188 L 351.15625 257.394531 C 350.230469 259.554688 349.265625 261.691406 348.257812 263.808594 L 276.667969 296.082031 L 341.855469 276.023438 C 340.539062 278.3125 339.175781 280.570312 337.765625 282.792969 L 278.796875 302.78125 L 331.5 292 C 329.796875 294.339844 328.042969 296.636719 326.230469 298.890625 L 280.265625 309.660156 L 320.746094 305.386719 C 318.699219 307.703125 316.59375 309.960938 314.425781 312.164062 L 281.070312 316.644531 L 310.125 316.398438 C 307.789062 318.621094 305.394531 320.78125 302.941406 322.875 L 281.191406 323.675781 L 299.992188 325.339844 C 297.441406 327.421875 294.835938 329.4375 292.167969 331.378906 L 280.636719 330.6875 L 290.554688 332.542969 C 287.863281 334.457031 285.113281 336.300781 282.3125 338.070312 L 279.40625 337.609375 L 281.898438 338.328125 C 254.535156 355.492188 222.171875 365.414062 187.488281 365.414062 C 171.164062 365.414062 155.355469 363.214844 140.339844 359.101562 " fill-opacity="1" fill-rule="nonzero"/></g><path fill="#211c1d" d="M 226.007812 303.699219 L 242.339844 356.800781 C 237.410156 358.394531 232.382812 359.78125 227.273438 360.949219 L 211.539062 307.394531 L 226.007812 303.699219 " fill-opacity="1" fill-rule="nonzero"/><path fill="#211c1d" d="M 253.09375 282.136719 C 254.84375 279.28125 257.355469 279.28125 260.632812 282.136719 L 285.589844 335.949219 C 281.554688 338.625 277.398438 341.140625 273.136719 343.484375 L 251.035156 295.15625 L 253.09375 282.136719 " fill-opacity="1" fill-rule="nonzero"/><path fill="#211c1d" d="M 251.199219 65.710938 C 266.324219 62.496094 282.925781 80.304688 288.277344 105.492188 C 293.632812 130.675781 285.710938 153.699219 270.585938 156.914062 C 268.652344 157.324219 262.507812 158.007812 261.320312 158.261719 C 246.195312 161.476562 227.0625 144.242188 221.710938 119.054688 C 216.355469 93.871094 226.804688 70.273438 241.933594 67.058594 C 243.863281 66.648438 250.011719 65.964844 251.199219 65.710938 " fill-opacity="1" fill-rule="nonzero"/><path fill="#f4e29b" d="M 251.757812 68.359375 C 264.363281 65.683594 280.296875 80.976562 285.628906 106.054688 C 290.960938 131.136719 282.621094 151.585938 270.023438 154.265625 C 257.421875 156.941406 241.484375 141.652344 236.152344 116.570312 C 230.820312 91.492188 239.160156 71.039062 251.757812 68.359375 " fill-opacity="1" fill-rule="nonzero"/><path fill="#211c1d" d="M 192.023438 23.761719 C 208.886719 20.175781 227.394531 40.03125 233.363281 68.109375 C 239.332031 96.1875 230.503906 121.855469 213.640625 125.4375 C 211.484375 125.894531 204.632812 126.65625 203.308594 126.9375 C 186.445312 130.523438 167.9375 110.667969 161.96875 82.589844 C 156 54.511719 164.832031 28.84375 181.695312 25.261719 C 183.847656 24.804688 190.699219 24.042969 192.023438 23.761719 " fill-opacity="1" fill-rule="nonzero"/><path fill="#f4e29b" d="M 192.652344 26.714844 C 206.699219 23.730469 224.464844 40.777344 230.410156 68.738281 C 236.355469 96.699219 227.058594 119.496094 213.011719 122.484375 C 198.964844 125.46875 181.195312 108.421875 175.253906 80.460938 C 169.308594 52.5 178.605469 29.699219 192.652344 26.714844 " fill-opacity="1" fill-rule="nonzero"/><path fill="#211c1d" d="M 286.976562 154.226562 L 184.066406 100.351562 L 110.863281 123.082031 L 105.765625 203.265625 L 222.855469 241.089844 L 287.027344 241.855469 L 289.839844 160.039062 L 286.976562 154.226562 " fill-opacity="1" fill-rule="evenodd"/><path fill="#211c1d" d="M 171.269531 109.480469 L 109.074219 80.21875 L 107.910156 76.90625 L 104.242188 74.042969 L 40.976562 97.847656 L 39.453125 166.304688 L 47.507812 165.140625 L 50.820312 169.167969 L 118.917969 187.871094 L 168.316406 171.046875 L 171.269531 109.480469 " fill-opacity="1" fill-rule="evenodd"/><path fill="#211c1d" d="M 156.933594 283.984375 C 156.933594 272.660156 179.015625 263.484375 206.257812 263.484375 C 233.5 263.484375 255.582031 272.660156 255.582031 283.984375 C 255.582031 285.589844 255.332031 291.09375 255.332031 292.367188 C 255.332031 302.34375 233.304688 310.433594 206.132812 310.433594 C 178.957031 310.433594 156.929688 302.34375 156.929688 292.367188 C 156.929688 291.015625 156.933594 285.511719 156.933594 283.984375 " fill-opacity="1" fill-rule="nonzero"/><path fill="#211c1d" d="M 220.546875 298.464844 L 219.351562 356.386719 C 214.539062 362.582031 199.796875 361.558594 198.773438 355.214844 L 198.433594 298.152344 L 220.546875 298.464844 " fill-opacity="1" fill-rule="evenodd"/><path fill="#211c1d" d="M 176.839844 224.730469 C 172.558594 242.382812 181.917969 263.878906 191.660156 265.253906 L 236.988281 274.597656 C 241.355469 266.804688 244.527344 254.867188 246.492188 238.777344 L 176.839844 224.730469 " fill-opacity="1" fill-rule="evenodd"/><path fill="#211c1d" d="M 235.957031 258.828125 C 235.957031 251.683594 240.234375 245.894531 245.511719 245.894531 C 250.785156 245.894531 255.0625 251.683594 255.0625 258.828125 C 255.0625 265.972656 250.785156 271.765625 245.511719 271.765625 C 240.234375 271.765625 235.957031 265.972656 235.957031 258.828125 " fill-opacity="1" fill-rule="nonzero"/><path fill="#211c1d" d="M 283.574219 156.910156 L 296.550781 152.210938 L 301.472656 157.578125 L 297.222656 160.265625 L 294.761719 158.476562 L 287.378906 163.394531 L 283.574219 156.910156 " fill-opacity="1" fill-rule="evenodd"/><path fill="#f4e29b" d="M 183.816406 103.664062 L 178.558594 194.496094 L 283.769531 234.765625 L 287.117188 156.949219 L 183.816406 103.664062 " fill-opacity="1" fill-rule="evenodd"/><path fill="#f4e29b" d="M 116.90625 88.066406 L 120.308594 89.632812 C 120.308594 119.238281 120.3125 139.117188 120.316406 149.753906 L 116.898438 148.59375 C 116.902344 138.34375 116.90625 118.0625 116.90625 88.066406 " fill-opacity="1" fill-rule="evenodd"/><path fill="#f4e29b" d="M 126.386719 92.429688 L 129.386719 93.808594 L 129.390625 152.832031 L 126.378906 151.8125 C 126.382812 140.890625 126.386719 120.945312 126.386719 92.429688 " fill-opacity="1" fill-rule="evenodd"/><path fill="#f4e29b" d="M 135.441406 96.597656 L 137.640625 97.609375 L 137.644531 155.632812 L 135.433594 154.882812 L 135.441406 96.597656 " fill-opacity="1" fill-rule="evenodd"/><path fill="#f4e29b" d="M 143.691406 100.398438 L 146.894531 101.871094 L 146.898438 158.773438 L 143.691406 157.683594 L 143.691406 100.398438 " fill-opacity="1" fill-rule="evenodd"/><path fill="#f4e29b" d="M 153.570312 104.949219 L 155.550781 105.859375 C 155.550781 132.78125 155.550781 151.320312 155.554688 161.710938 L 153.566406 161.035156 L 153.570312 104.949219 " fill-opacity="1" fill-rule="evenodd"/><path fill="#f4e29b" d="M 159.203125 107.539062 L 160.777344 108.265625 L 160.78125 163.484375 L 159.195312 162.949219 L 159.203125 107.539062 " fill-opacity="1" fill-rule="evenodd"/><path fill="#f4e29b" d="M 166.042969 165.269531 L 164.339844 164.691406 C 164.691406 154.960938 165.351562 136.738281 166.285156 110.796875 L 167.84375 111.515625 L 166.042969 165.269531 " fill-opacity="1" fill-rule="evenodd"/><path fill="#f4e29b" d="M 109.664062 84.730469 L 112.453125 86.015625 C 112.453125 117.15625 112.457031 137.402344 112.460938 147.089844 L 109.0625 145.9375 L 109.664062 84.730469 " fill-opacity="1" fill-rule="evenodd"/><path fill="#f4e29b" d="M 102.59375 76.777344 L 100.855469 143.714844 L 106.1875 145.457031 L 106.1875 78.199219 L 102.59375 76.777344 " fill-opacity="1" fill-rule="evenodd"/><path fill="#f4e29b" d="M 52.492188 110.953125 C 58.476562 98.113281 71.789062 92.03125 82.230469 97.359375 C 92.671875 102.691406 96.285156 117.421875 90.304688 130.257812 C 84.324219 143.097656 71.011719 149.183594 60.570312 143.851562 C 50.128906 138.519531 46.511719 123.792969 52.492188 110.953125 " fill-opacity="1" fill-rule="nonzero"/><path fill="#f4e29b" d="M 152.75 178.5625 L 87.730469 158.71875 C 87.410156 161.054688 86.777344 162.449219 85.824219 162.894531 L 146.519531 181.351562 C 148.917969 181.476562 150.992188 180.546875 152.75 178.5625 " fill-opacity="1" fill-rule="evenodd"/><path fill="#f4e29b" d="M 133.566406 183.835938 L 69.148438 165.125 C 68.832031 167.328125 68.203125 168.640625 67.257812 169.058594 L 127.394531 186.464844 C 129.769531 186.585938 131.824219 185.710938 133.566406 183.835938 " fill-opacity="1" fill-rule="evenodd"/><path fill="#f4e29b" d="M 85.746094 156.203125 L 82.484375 155.726562 C 82.425781 159.34375 81.144531 161.804688 78.648438 163.113281 C 83.082031 163.917969 85.449219 161.613281 85.746094 156.203125 " fill-opacity="1" fill-rule="evenodd"/><path fill="#f4e29b" d="M 66.949219 162.863281 L 63.972656 162.429688 C 63.917969 165.726562 62.753906 167.976562 60.472656 169.167969 C 64.519531 169.902344 66.675781 167.800781 66.949219 162.863281 " fill-opacity="1" fill-rule="evenodd"/><path fill="#f4e29b" d="M 175.511719 191.191406 L 175.511719 194.792969 L 109.800781 202.847656 Z M 175.511719 191.191406 " fill-opacity="1" fill-rule="evenodd"/><path fill="#211c1d" d="M 220.898438 122.203125 L 221.042969 128.40625 L 214.40625 125.394531 L 213.828125 142.921875 L 219.882812 146.078125 L 217.304688 187.214844 L 214.550781 187.214844 L 216 148.394531 L 210.667969 145.527344 L 211.539062 125.535156 L 214.117188 123.941406 L 218.433594 125.535156 L 218.289062 121.507812 L 220.898438 122.203125 " fill-opacity="1" fill-rule="evenodd"/><path fill="#211c1d" d="M 199.605469 191.515625 C 188.417969 185.6875 184.6875 170.636719 195.578125 163.324219 L 193.1875 157.5 L 196.621094 155.566406 L 199.011719 163.175781 C 188.871094 169.734375 193.1875 185.835938 201.554688 189.121094 C 204.605469 197.214844 215.371094 197.511719 211.390625 185.390625 C 216.308594 197.027344 204.972656 200.902344 199.605469 191.515625 " fill-opacity="1" fill-rule="evenodd"/><path fill="#211c1d" d="M 214.535156 162.191406 L 210.507812 164.628906 L 207.980469 162.566406 Z M 214.535156 162.191406 " fill-opacity="1" fill-rule="evenodd"/><path fill="#211c1d" d="M 198.445312 174.132812 C 198.191406 171.691406 199.566406 169.542969 201.519531 169.335938 C 201.90625 169.296875 202.285156 169.335938 202.644531 169.441406 C 201.65625 170.316406 201.085938 171.828125 201.257812 173.476562 C 201.464844 175.441406 202.660156 176.996094 204.136719 177.425781 C 203.660156 177.847656 203.085938 178.121094 202.449219 178.1875 C 200.496094 178.390625 198.703125 176.578125 198.445312 174.132812 " fill-opacity="1" fill-rule="nonzero"/><path fill="#211c1d" d="M 185.664062 122.289062 C 184.3125 114.832031 187.460938 107.902344 192.691406 106.8125 C 197.925781 105.722656 203.265625 110.886719 204.621094 118.34375 C 205.972656 125.804688 202.828125 132.734375 197.59375 133.820312 C 192.359375 134.914062 187.019531 129.75 185.664062 122.289062 " fill-opacity="1" fill-rule="nonzero"/><path fill="#f4e29b" d="M 188.644531 121.671875 C 187.292969 114.210938 190.4375 107.28125 195.667969 106.191406 C 200.902344 105.105469 206.242188 110.265625 207.597656 117.726562 C 208.953125 125.183594 205.804688 132.113281 200.570312 133.203125 C 195.339844 134.289062 190 129.128906 188.644531 121.671875 " fill-opacity="1" fill-rule="nonzero"/><path fill="#211c1d" d="M 196.152344 110.414062 C 196.398438 110.289062 196.660156 110.191406 196.925781 110.125 C 200.011719 109.359375 203.160156 112.980469 203.960938 118.207031 C 204.757812 123.4375 202.902344 128.292969 199.816406 129.054688 C 199.339844 129.175781 198.859375 129.1875 198.386719 129.105469 C 200.996094 127.78125 202.476562 123.320312 201.75 118.546875 C 201.074219 114.128906 198.722656 110.863281 196.152344 110.414062 " fill-opacity="1" fill-rule="nonzero"/><path fill="#211c1d" d="M 215.191406 193.886719 L 273.824219 220.191406 C 275.035156 219.984375 276.113281 218.710938 275.101562 217.285156 L 217.710938 190.5 C 217.730469 192.03125 216.714844 193.414062 215.191406 193.886719 " fill-opacity="1" fill-rule="evenodd"/><path fill="#f4e29b" d="M 220.839844 190.515625 C 223.257812 192.542969 222.246094 195.34375 218.886719 194.910156 C 220.894531 194.207031 221.742188 193.121094 220.839844 190.515625 " fill-opacity="1" fill-rule="evenodd"/><path fill="#f4e29b" d="M 223.660156 197.066406 C 225.625 196.378906 226.457031 195.316406 225.574219 192.757812 C 227.945312 194.746094 226.953125 197.492188 223.660156 197.066406 " fill-opacity="1" fill-rule="evenodd"/><path fill="#f4e29b" d="M 228.433594 199.226562 C 230.359375 198.550781 231.175781 197.507812 230.308594 195 C 232.632812 196.953125 231.664062 199.644531 228.433594 199.226562 " fill-opacity="1" fill-rule="evenodd"/><path fill="#f4e29b" d="M 233.207031 201.382812 C 235.09375 200.722656 235.890625 199.703125 235.042969 197.246094 C 237.324219 199.15625 236.371094 201.792969 233.207031 201.382812 " fill-opacity="1" fill-rule="evenodd"/><path fill="#f4e29b" d="M 237.976562 203.542969 C 239.828125 202.894531 240.609375 201.894531 239.777344 199.488281 C 242.011719 201.359375 241.078125 203.941406 237.976562 203.542969 " fill-opacity="1" fill-rule="evenodd"/><path fill="#f4e29b" d="M 242.75 205.699219 C 244.558594 205.066406 245.328125 204.085938 244.511719 201.730469 C 246.699219 203.566406 245.785156 206.089844 242.75 205.699219 " fill-opacity="1" fill-rule="evenodd"/><path fill="#f4e29b" d="M 247.523438 207.855469 C 249.292969 207.234375 250.042969 206.28125 249.246094 203.972656 C 251.382812 205.765625 250.488281 208.242188 247.523438 207.855469 " fill-opacity="1" fill-rule="evenodd"/><path fill="#f4e29b" d="M 252.292969 210.015625 C 254.027344 209.40625 254.761719 208.472656 253.980469 206.214844 C 256.070312 207.972656 255.199219 210.390625 252.292969 210.015625 " fill-opacity="1" fill-rule="evenodd"/><path fill="#f4e29b" d="M 257.066406 212.171875 C 258.761719 211.578125 259.480469 210.664062 258.714844 208.460938 C 260.757812 210.175781 259.90625 212.542969 257.066406 212.171875 " fill-opacity="1" fill-rule="evenodd"/><path fill="#f4e29b" d="M 261.839844 214.332031 C 263.496094 213.75 264.195312 212.855469 263.449219 210.703125 C 265.445312 212.378906 264.613281 214.691406 261.839844 214.332031 " fill-opacity="1" fill-rule="evenodd"/><path fill="#f4e29b" d="M 266.609375 216.488281 C 268.226562 215.921875 268.910156 215.050781 268.183594 212.945312 C 270.136719 214.582031 269.320312 216.839844 266.609375 216.488281 " fill-opacity="1" fill-rule="evenodd"/><path fill="#f4e29b" d="M 272.917969 215.1875 C 274.824219 216.785156 274.027344 218.988281 271.382812 218.648438 C 272.960938 218.09375 273.628906 217.242188 272.917969 215.1875 " fill-opacity="1" fill-rule="evenodd"/><path fill="#211c1d" d="M 221.964844 198.398438 L 221.964844 203.191406 L 269.0625 222.945312 L 266.640625 223.324219 L 219.847656 204.082031 L 219.71875 198.78125 L 221.964844 198.398438 " fill-opacity="1" fill-rule="evenodd"/><path fill="#211c1d" d="M 281.007812 153.601562 L 279.792969 176.148438 L 287.242188 179.167969 L 287.242188 181.183594 L 277.988281 177.5625 L 279.59375 153.804688 L 281.007812 153.601562 " fill-opacity="1" fill-rule="evenodd"/><path fill="#211c1d" d="M 280.199219 206.75 L 279.390625 225.078125 L 285.4375 228.296875 L 278.179688 226.085938 L 277.988281 207.757812 L 280.199219 206.75 " fill-opacity="1" fill-rule="evenodd"/><path fill="#211c1d" d="M 141.117188 97.820312 L 179.546875 86.660156 C 178.050781 88.300781 178.351562 89.867188 180.441406 91.359375 L 145.945312 100.871094 L 141.117188 97.820312 " fill-opacity="1" fill-rule="evenodd"/><path fill="#211c1d" d="M 252.820312 143.800781 C 251.910156 138.222656 254.34375 133.101562 258.257812 132.359375 C 262.171875 131.613281 266.082031 135.53125 266.992188 141.105469 C 267.90625 146.679688 265.472656 151.800781 261.558594 152.546875 C 257.644531 153.289062 253.734375 149.375 252.820312 143.800781 " fill-opacity="1" fill-rule="nonzero"/><path fill="#f4e29b" d="M 255.046875 143.375 C 254.136719 137.800781 256.570312 132.679688 260.484375 131.9375 C 264.398438 131.191406 268.308594 135.109375 269.222656 140.683594 C 270.132812 146.257812 267.699219 151.378906 263.789062 152.121094 C 259.871094 152.863281 255.960938 148.949219 255.046875 143.375 " fill-opacity="1" fill-rule="nonzero"/><path fill="#211c1d" d="M 260.875 135 C 261.0625 134.90625 261.253906 134.835938 261.457031 134.792969 C 263.765625 134.261719 266.0625 137 266.589844 140.90625 C 267.117188 144.8125 265.671875 148.40625 263.363281 148.9375 C 263.007812 149.019531 262.648438 149.019531 262.296875 148.953125 C 264.257812 148 265.421875 144.695312 264.941406 141.128906 C 264.496094 137.832031 262.785156 135.363281 260.875 135 " fill-opacity="1" fill-rule="nonzero"/><path fill="#211c1d" d="M 253.972656 138.222656 L 247.515625 138.84375 C 243.398438 141.589844 244.996094 148.9375 249.378906 149.910156 L 256.101562 149.464844 L 253.972656 138.222656 " fill-opacity="1" fill-rule="evenodd"/><path fill="#211c1d" d="M 180.316406 91.3125 L 190.839844 109.613281 L 187.941406 110.585938 L 175.636719 90.679688 L 180.316406 91.3125 " fill-opacity="1" fill-rule="evenodd"/><path fill="#f4e29b" d="M 179.503906 89.269531 L 190.863281 110.90625 L 196.332031 107.421875 L 183.621094 89.539062 L 179.503906 89.269531 " fill-opacity="1" fill-rule="evenodd"/><path fill="#f4e29b" d="M 147.910156 98.546875 L 149.316406 99.125 L 178.523438 91.292969 C 177.96875 91.175781 177.605469 90.859375 177.433594 90.347656 L 147.910156 98.546875 " fill-opacity="1" fill-rule="evenodd"/><path fill="#211c1d" d="M 226.5625 69.605469 C 231.507812 92.886719 225.226562 109.355469 217.527344 115.214844 C 224.71875 108.6875 230.203125 92.6875 225.488281 70.5 C 219.59375 42.78125 203.085938 30.359375 193.699219 32.355469 C 192.195312 32.675781 190.675781 33.40625 189.207031 34.523438 C 191 32.894531 192.898438 31.855469 194.773438 31.460938 C 204.15625 29.464844 220.667969 41.886719 226.5625 69.605469 " fill-opacity="1" fill-rule="nonzero"/><path fill="#211c1d" d="M 221.019531 67.5 C 220.554688 65.347656 221.378906 63.390625 222.859375 63.132812 C 224.339844 62.871094 225.914062 64.410156 226.375 66.5625 C 226.839844 68.714844 226.015625 70.667969 224.535156 70.925781 C 223.058594 71.1875 221.484375 69.652344 221.019531 67.5 " fill-opacity="1" fill-rule="nonzero"/><path fill="#f4e29b" d="M 222.425781 67.164062 C 221.964844 65.007812 222.789062 63.054688 224.269531 62.792969 C 225.746094 62.535156 227.324219 64.070312 227.785156 66.21875 C 228.246094 68.375 227.425781 70.328125 225.945312 70.589844 C 224.464844 70.847656 222.890625 69.3125 222.425781 67.164062 " fill-opacity="1" fill-rule="nonzero"/><path fill="#211c1d" d="M 282.328125 106.785156 C 286.804688 127.84375 281.121094 142.734375 274.160156 148.035156 C 280.660156 142.132812 285.621094 127.660156 281.355469 107.597656 C 276.027344 82.523438 261.09375 71.289062 252.605469 73.09375 C 251.246094 73.382812 249.871094 74.042969 248.542969 75.054688 C 250.164062 73.585938 251.882812 72.644531 253.578125 72.285156 C 262.066406 70.480469 276.996094 81.714844 282.328125 106.785156 " fill-opacity="1" fill-rule="nonzero"/><path fill="#211c1d" d="M 277.292969 104.921875 C 276.871094 102.972656 277.617188 101.203125 278.957031 100.96875 C 280.292969 100.734375 281.71875 102.121094 282.140625 104.066406 C 282.554688 106.015625 281.808594 107.785156 280.472656 108.019531 C 279.132812 108.253906 277.710938 106.867188 277.292969 104.921875 " fill-opacity="1" fill-rule="nonzero"/><path fill="#f4e29b" d="M 278.566406 104.613281 C 278.144531 102.664062 278.890625 100.898438 280.230469 100.664062 C 281.566406 100.425781 282.992188 101.816406 283.410156 103.761719 C 283.832031 105.707031 283.085938 107.476562 281.746094 107.710938 C 280.40625 107.949219 278.984375 106.558594 278.566406 104.613281 " fill-opacity="1" fill-rule="nonzero"/><path fill="#211c1d" d="M 57.066406 111.769531 C 63.046875 98.933594 76.359375 92.847656 86.800781 98.179688 C 97.246094 103.511719 100.859375 118.238281 94.875 131.078125 C 88.894531 143.914062 75.582031 150.003906 65.140625 144.671875 C 54.699219 139.339844 51.085938 124.609375 57.066406 111.769531 " fill-opacity="1" fill-rule="nonzero"/><path fill="#f4e29b" d="M 60.027344 112.03125 C 64.320312 102.820312 72.382812 97.085938 80.453125 96.546875 C 81.0625 96.777344 81.664062 97.042969 82.257812 97.34375 C 92.699219 102.675781 96.3125 117.40625 90.332031 130.246094 C 86.042969 139.453125 77.980469 145.1875 69.910156 145.726562 C 69.300781 145.496094 68.699219 145.230469 68.105469 144.929688 C 57.664062 139.597656 54.046875 124.867188 60.027344 112.03125 " fill-opacity="1" fill-rule="nonzero"/><path fill="#f4e29b" d="M 231.34375 231.707031 L 219.429688 263.429688 L 214.746094 263.429688 L 226.5 232.855469 L 231.34375 231.707031 " fill-opacity="1" fill-rule="evenodd"/><path fill="#f4e29b" d="M 207.675781 227.679688 L 199.949219 225.78125 C 202.023438 240.34375 206.683594 250.976562 213.925781 257.667969 L 217.953125 249.125 C 214.550781 246.851562 211.125 239.703125 207.675781 227.679688 " fill-opacity="1" fill-rule="evenodd"/><path fill="#f4e29b" d="M 251.6875 287.488281 C 251.6875 284.195312 253.78125 281.53125 256.367188 281.53125 C 258.953125 281.53125 261.050781 284.195312 261.050781 287.488281 C 261.050781 290.777344 258.953125 293.445312 256.367188 293.445312 C 253.78125 293.445312 251.6875 290.777344 251.6875 287.488281 " fill-opacity="1" fill-rule="nonzero"/><path fill="#f4e29b" d="M 249.820312 280.847656 C 220.890625 264 178.398438 264.371094 161.734375 280.292969 C 187.648438 268.261719 217.015625 268.445312 249.820312 280.847656 " fill-opacity="1" fill-rule="evenodd"/><path fill="#f4e29b" d="M 216.761719 303.132812 L 216.761719 350.160156 L 213.074219 349.648438 Z M 216.761719 303.132812 " fill-opacity="1" fill-rule="evenodd"/><path fill="#f4e29b" d="M 238.226562 258.765625 C 238.226562 252.785156 241.675781 247.941406 245.929688 247.941406 C 250.183594 247.941406 253.632812 252.785156 253.632812 258.765625 C 253.632812 264.742188 250.183594 269.589844 245.929688 269.589844 C 241.675781 269.589844 238.226562 264.742188 238.226562 258.765625 " fill-opacity="1" fill-rule="nonzero"/><path fill="#f4e29b" d="M 196.796875 283.238281 C 210.210938 282.664062 225 284.953125 238.273438 290.222656 L 238.429688 291.917969 C 223.367188 287.40625 209.066406 285.601562 195.527344 286.5 L 196.796875 283.238281 " fill-opacity="1" fill-rule="evenodd"/><path fill="#211c1d" d="M 162.183594 287.355469 L 172.300781 295.925781 L 138.28125 358.523438 C 133.523438 357.15625 128.847656 355.597656 124.261719 353.855469 L 162.183594 287.355469 " fill-opacity="1" fill-rule="nonzero"/><path fill="#211c1d" d="M 181.546875 283.847656 L 195.171875 283.074219 L 165.179688 364.03125 C 159.628906 363.335938 154.164062 362.386719 148.785156 361.195312 L 181.546875 283.847656 " fill-opacity="1" fill-rule="nonzero"/><path fill="#f4e29b" d="M 190.078125 290.378906 L 183.519531 307.410156 C 182.667969 306.847656 181.359375 306.683594 179.605469 306.921875 L 186.816406 289.238281 C 188.535156 289.070312 189.621094 289.453125 190.078125 290.378906 " fill-opacity="1" fill-rule="evenodd"/></svg>